<svg xmlns="http://www.w3.org/2000/svg" xmlns:xlink="http://www.w3.org/1999/xlink" width="512" zoomAndPan="magnify" viewBox="0 0 384 383.999986" height="512" preserveAspectRatio="xMidYMid meet" version="1.0"><defs><clipPath id="d902a27916"><path d="M 52.5 0 L 331.5 0 C 360.496094 0 384 23.503906 384 52.5 L 384 331.5 C 384 360.496094 360.496094 384 331.5 384 L 52.5 384 C 23.503906 384 0 360.496094 0 331.5 L 0 52.5 C 0 23.503906 23.503906 0 52.5 0 Z M 52.5 0 " clip-rule="nonzero"/></clipPath><clipPath id="e440400e02"><path d="M 0 0 L 384 0 L 384 384 L 0 384 Z M 0 0 " clip-rule="nonzero"/></clipPath><clipPath id="76f35bac25"><path d="M 52.5 0 L 331.5 0 C 360.496094 0 384 23.503906 384 52.5 L 384 331.5 C 384 360.496094 360.496094 384 331.5 384 L 52.5 384 C 23.503906 384 0 360.496094 0 331.5 L 0 52.5 C 0 23.503906 23.503906 0 52.5 0 Z M 52.5 0 " clip-rule="nonzero"/></clipPath><clipPath id="93ee2cb6aa"><rect x="0" width="384" y="0" height="384"/></clipPath><clipPath id="02c7eca663"><path d="M 27.671875 31.664062 L 347 31.664062 L 347 351 L 27.671875 351 Z M 27.671875 31.664062 " clip-rule="nonzero"/></clipPath><clipPath id="1e33dbe010"><path d="M 120.957031 13.320312 L 354.484375 13.320312 L 354.484375 107.84375 L 120.957031 107.84375 Z M 120.957031 13.320312 " clip-rule="nonzero"/></clipPath><clipPath id="2b9b0f573e"><path d="M 0.957031 0.320312 L 234.484375 0.320312 L 234.484375 94.84375 L 0.957031 94.84375 Z M 0.957031 0.320312 " clip-rule="nonzero"/></clipPath><clipPath id="5b05a7e782"><rect x="0" width="235" y="0" height="95"/></clipPath><clipPath id="5eff97391e"><path d="M 237 19 L 366 19 L 366 165 L 237 165 Z M 237 19 " clip-rule="nonzero"/></clipPath><clipPath id="3ac234fae0"><path d="M 237.722656 46.050781 L 332.476562 19.441406 L 365.683594 137.699219 L 270.933594 164.308594 Z M 237.722656 46.050781 " clip-rule="nonzero"/></clipPath><clipPath id="7e3548bfca"><path d="M 0.601562 0.441406 L 128.761719 0.441406 L 128.761719 145.398438 L 0.601562 145.398438 Z M 0.601562 0.441406 " clip-rule="nonzero"/></clipPath><clipPath id="3150d751d0"><path d="M 0.722656 27.050781 L 95.476562 0.441406 L 128.683594 118.699219 L 33.933594 145.308594 Z M 0.722656 27.050781 " clip-rule="nonzero"/></clipPath><clipPath id="4dc5f51928"><rect x="0" width="129" y="0" height="146"/></clipPath><clipPath id="6ad830d8b8"><path d="M 227.21875 39.847656 L 337.46875 39.847656 L 337.46875 150.097656 L 227.21875 150.097656 Z M 227.21875 39.847656 " clip-rule="nonzero"/></clipPath><clipPath id="c9577b432f"><path d="M 185.828125 50.113281 L 230.828125 50.113281 L 230.828125 95.113281 L 185.828125 95.113281 Z M 185.828125 50.113281 " clip-rule="nonzero"/></clipPath><clipPath id="2b8632c267"><path d="M 303.28125 27.601562 L 348.28125 27.601562 L 348.28125 72.601562 L 303.28125 72.601562 Z M 303.28125 27.601562 " clip-rule="nonzero"/></clipPath></defs><g clip-path="url(#d902a27916)"><g><g clip-path="url(#93ee2cb6aa)"><g clip-path="url(#e440400e02)"><g clip-path="url(#76f35bac25)"><rect x="-84.48" width="552.96" fill="#ffffff" height="552.959979" y="-84.479997" fill-opacity="1"/></g></g></g></g></g><g clip-path="url(#02c7eca663)"><path fill="#30b230" d="M 264.335938 165.714844 L 264.335938 298.992188 C 264.335938 327.523438 241.167969 350.683594 212.640625 350.683594 L 79.363281 350.683594 C 50.832031 350.683594 27.671875 327.523438 27.671875 298.992188 L 27.671875 165.714844 C 27.671875 137.183594 50.832031 114.019531 79.363281 114.019531 L 212.640625 114.019531 C 241.167969 114.019531 264.335938 137.183594 264.335938 165.714844 M 123.511719 139.535156 L 104.890625 139.535156 L 104.890625 158.160156 L 49.011719 158.160156 L 49.011719 176.78125 L 141.300781 176.792969 C 138.15625 185.101562 134.308594 193.066406 129.753906 200.695312 C 125.203125 208.324219 120.019531 215.492188 114.199219 222.203125 C 107.035156 213.949219 100.847656 205.019531 95.640625 195.40625 L 74.78125 195.40625 C 81.613281 210.027344 90.375 223.382812 101.066406 235.472656 C 93.890625 241.886719 86.121094 247.480469 77.761719 252.257812 C 69.398438 257.03125 60.632812 260.878906 51.460938 263.804688 L 56.453125 281.765625 C 67.15625 278.40625 77.378906 273.941406 87.113281 268.367188 C 96.851562 262.796875 105.878906 256.25 114.199219 248.726562 C 122.769531 256.449219 132.074219 263.160156 142.113281 268.847656 L 149.097656 251.359375 C 141.335938 246.765625 134.085938 241.464844 127.351562 235.464844 C 134.886719 226.917969 141.492188 217.707031 147.167969 207.824219 C 152.84375 197.945312 157.476562 187.597656 161.0625 176.78125 L 179.390625 176.78125 L 179.390625 158.160156 L 123.511719 158.160156 Z M 202.671875 214.035156 L 184.046875 214.035156 L 143.078125 316.476562 L 163.140625 316.476562 L 174.308594 288.539062 L 212.394531 288.539062 L 223.582031 316.476562 L 243.648438 316.476562 Z M 193.359375 240.902344 L 204.953125 269.914062 L 181.746094 269.914062 Z M 229.769531 96.59375 C 229.753906 95.835938 229.753906 95.078125 229.769531 94.320312 C 256.050781 89.347656 276.789062 68.617188 281.753906 42.335938 C 282.515625 42.320312 283.273438 42.320312 284.035156 42.335938 C 289 68.617188 309.738281 89.347656 336.019531 94.320312 C 336.035156 95.078125 336.035156 95.835938 336.019531 96.59375 C 309.738281 101.566406 289 122.300781 284.035156 148.582031 C 283.273438 148.601562 282.515625 148.601562 281.753906 148.582031 C 276.789062 122.300781 256.050781 101.566406 229.769531 96.59375 M 304.21875 53.355469 L 304.214844 52.902344 L 304.21875 52.441406 C 305.5 52.199219 306.753906 51.859375 307.980469 51.429688 C 309.210938 50.996094 310.402344 50.476562 311.550781 49.867188 C 312.703125 49.257812 313.800781 48.5625 314.851562 47.789062 C 315.898438 47.015625 316.882812 46.167969 317.804688 45.25 C 318.722656 44.328125 319.570312 43.34375 320.347656 42.296875 C 321.121094 41.246094 321.8125 40.148438 322.421875 38.996094 C 323.03125 37.847656 323.554688 36.65625 323.984375 35.429688 C 324.417969 34.199219 324.757812 32.945312 325 31.667969 L 325.453125 31.664062 L 325.90625 31.667969 C 326.152344 32.945312 326.492188 34.199219 326.921875 35.429688 C 327.355469 36.65625 327.875 37.847656 328.488281 38.996094 C 329.097656 40.148438 329.789062 41.246094 330.5625 42.296875 C 331.335938 43.34375 332.183594 44.328125 333.105469 45.25 C 334.027344 46.167969 335.011719 47.015625 336.058594 47.789062 C 337.105469 48.5625 338.207031 49.257812 339.355469 49.867188 C 340.507812 50.476562 341.695312 50.996094 342.925781 51.429688 C 344.15625 51.859375 345.410156 52.199219 346.6875 52.441406 L 346.691406 52.902344 L 346.6875 53.355469 C 345.410156 53.597656 344.15625 53.9375 342.925781 54.367188 C 341.699219 54.800781 340.507812 55.320312 339.355469 55.929688 C 338.207031 56.542969 337.105469 57.234375 336.058594 58.007812 C 335.011719 58.78125 334.027344 59.628906 333.105469 60.550781 C 332.183594 61.46875 331.335938 62.453125 330.5625 63.5 C 329.789062 64.550781 329.097656 65.648438 328.488281 66.800781 C 327.875 67.949219 327.355469 69.140625 326.921875 70.367188 C 326.492188 71.597656 326.152344 72.851562 325.90625 74.128906 C 325.605469 74.136719 325.304688 74.136719 325 74.128906 C 324.757812 72.851562 324.417969 71.597656 323.984375 70.367188 C 323.554688 69.140625 323.03125 67.949219 322.421875 66.800781 C 321.8125 65.648438 321.121094 64.550781 320.347656 63.5 C 319.570312 62.453125 318.722656 61.46875 317.804688 60.550781 C 316.882812 59.628906 315.898438 58.78125 314.851562 58.007812 C 313.800781 57.234375 312.703125 56.542969 311.550781 55.929688 C 310.402344 55.320312 309.210938 54.800781 307.980469 54.367188 C 306.753906 53.9375 305.5 53.597656 304.21875 53.355469 M 187.289062 74.675781 L 187.285156 74.21875 L 187.289062 73.765625 C 188.570312 73.523438 189.824219 73.183594 191.050781 72.75 C 192.28125 72.320312 193.46875 71.796875 194.621094 71.1875 C 195.773438 70.578125 196.871094 69.886719 197.917969 69.113281 C 198.964844 68.339844 199.949219 67.492188 200.871094 66.570312 C 201.792969 65.648438 202.640625 64.664062 203.414062 63.617188 C 204.1875 62.570312 204.878906 61.472656 205.488281 60.320312 C 206.097656 59.171875 206.621094 57.980469 207.050781 56.753906 C 207.484375 55.523438 207.820312 54.269531 208.066406 52.992188 L 208.519531 52.984375 L 208.976562 52.992188 C 209.222656 54.269531 209.5625 55.523438 209.992188 56.753906 C 210.425781 57.980469 210.945312 59.171875 211.554688 60.320312 C 212.164062 61.472656 212.859375 62.570312 213.632812 63.617188 C 214.40625 64.664062 215.253906 65.648438 216.175781 66.570312 C 217.09375 67.492188 218.078125 68.339844 219.125 69.113281 C 220.171875 69.886719 221.273438 70.578125 222.421875 71.1875 C 223.574219 71.796875 224.765625 72.320312 225.992188 72.75 C 227.222656 73.183594 228.476562 73.523438 229.753906 73.765625 L 229.757812 74.21875 L 229.753906 74.675781 C 228.476562 74.921875 227.222656 75.261719 225.992188 75.691406 C 224.765625 76.125 223.574219 76.644531 222.421875 77.257812 C 221.273438 77.867188 220.171875 78.558594 219.125 79.332031 C 218.078125 80.105469 217.09375 80.953125 216.175781 81.875 C 215.253906 82.792969 214.40625 83.777344 213.632812 84.828125 C 212.859375 85.875 212.164062 86.972656 211.554688 88.125 C 210.945312 89.273438 210.425781 90.464844 209.992188 91.691406 C 209.5625 92.921875 209.222656 94.175781 208.976562 95.453125 L 208.519531 95.457031 L 208.066406 95.453125 C 207.820312 94.175781 207.484375 92.921875 207.050781 91.691406 C 206.621094 90.464844 206.097656 89.273438 205.488281 88.125 C 204.878906 86.972656 204.1875 85.875 203.414062 84.828125 C 202.640625 83.777344 201.792969 82.792969 200.871094 81.875 C 199.949219 80.953125 198.964844 80.105469 197.917969 79.332031 C 196.871094 78.558594 195.773438 77.867188 194.621094 77.257812 C 193.46875 76.644531 192.28125 76.125 191.050781 75.691406 C 189.824219 75.261719 188.570312 74.921875 187.289062 74.675781 " fill-opacity="1" fill-rule="evenodd"/></g><g clip-path="url(#1e33dbe010)"><g transform="matrix(1, 0, 0, 1, 120, 13)"><g clip-path="url(#5b05a7e782)"><g clip-path="url(#2b9b0f573e)"><path fill="#ffffff" d="M 0.957031 0.320312 L 234.3125 0.320312 L 234.3125 94.84375 L 0.957031 94.84375 Z M 0.957031 0.320312 " fill-opacity="1" fill-rule="nonzero"/></g></g></g></g><g clip-path="url(#5eff97391e)"><g clip-path="url(#3ac234fae0)"><g transform="matrix(1, 0, 0, 1, 237, 19)"><g clip-path="url(#4dc5f51928)"><g clip-path="url(#7e3548bfca)"><g clip-path="url(#3150d751d0)"><path fill="#ffffff" d="M 0.722656 27.050781 L 95.476562 0.441406 L 128.734375 118.882812 L 33.984375 145.492188 Z M 0.722656 27.050781 " fill-opacity="1" fill-rule="nonzero"/></g></g></g></g></g></g><g clip-path="url(#6ad830d8b8)"><path fill="#000000" d="M 282.503906 39.847656 C 282.503906 39.847656 290.90625 68.296875 300.121094 77.511719 C 309.335938 86.726562 337.789062 95.132812 337.789062 95.132812 C 337.789062 95.132812 309.335938 103.539062 300.121094 112.75 C 290.90625 121.964844 282.503906 150.417969 282.503906 150.417969 C 282.503906 150.417969 274.097656 121.964844 264.882812 112.75 C 255.671875 103.539062 227.21875 95.132812 227.21875 95.132812 C 227.21875 95.132812 255.671875 86.726562 264.882812 77.511719 C 274.097656 68.296875 282.503906 39.847656 282.503906 39.847656 " fill-opacity="1" fill-rule="evenodd"/></g><g clip-path="url(#c9577b432f)"><path fill="#000000" d="M 208.335938 50.113281 C 208.335938 50.113281 211.757812 61.699219 215.511719 65.449219 C 219.261719 69.203125 230.847656 72.625 230.847656 72.625 C 230.847656 72.625 219.261719 76.046875 215.511719 79.796875 C 211.757812 83.550781 208.335938 95.132812 208.335938 95.132812 C 208.335938 95.132812 204.914062 83.550781 201.164062 79.796875 C 197.410156 76.046875 185.828125 72.625 185.828125 72.625 C 185.828125 72.625 197.410156 69.203125 201.164062 65.449219 C 204.914062 61.699219 208.335938 50.113281 208.335938 50.113281 " fill-opacity="1" fill-rule="evenodd"/></g><g clip-path="url(#2b8632c267)"><path fill="#000000" d="M 325.789062 27.601562 C 325.789062 27.601562 329.210938 39.183594 332.964844 42.9375 C 336.714844 46.6875 348.300781 50.109375 348.300781 50.109375 C 348.300781 50.109375 336.714844 53.535156 332.964844 57.285156 C 329.210938 61.035156 325.789062 72.621094 325.789062 72.621094 C 325.789062 72.621094 322.367188 61.035156 318.617188 57.285156 C 314.863281 53.535156 303.28125 50.109375 303.28125 50.109375 C 303.28125 50.109375 314.863281 46.6875 318.617188 42.9375 C 322.367188 39.183594 325.789062 27.601562 325.789062 27.601562 " fill-opacity="1" fill-rule="evenodd"/></g></svg>