<svg xmlns="http://www.w3.org/2000/svg" xml:space="preserve" style="fill-rule:evenodd;clip-rule:evenodd;stroke-linejoin:round;stroke-miterlimit:2" viewBox="0 0 75 75"><path d="M55.36 31.357v31.176c0 6.674-5.419 12.092-12.092 12.092H12.092C5.418 74.625 0 69.207 0 62.533V31.357c0-6.674 5.418-12.092 12.092-12.092h31.176c6.673 0 12.092 5.418 12.092 12.092m-32.941-6.124h-4.356v4.357H4.992v4.356l21.588.003a35.3 35.3 0 0 1-6.339 10.622 35 35 0 0 1-4.342-6.268H11.02a39.2 39.2 0 0 0 6.149 9.372 32 32 0 0 1-11.604 6.627l1.168 4.202a36.4 36.4 0 0 0 13.508-7.729 37 37 0 0 0 6.529 4.707l1.634-4.091a32.6 32.6 0 0 1-5.087-3.718 39.6 39.6 0 0 0 7.886-13.727h4.287V29.59H22.419zM40.936 42.66h-4.357l-9.583 23.963h4.693l2.612-6.535h8.909l2.617 6.535h4.694zm-2.178 6.285 2.712 6.786h-5.429zM47.275 15.189a12 12 0 0 1 0-.532c6.147-1.163 10.998-6.013 12.16-12.16a12 12 0 0 1 .533 0c1.162 6.147 6.013 10.997 12.16 12.16a12 12 0 0 1 0 .532c-6.147 1.163-10.998 6.013-12.16 12.161a12 12 0 0 1-.533 0c-1.162-6.148-6.013-10.998-12.16-12.161M64.69 5.074l-.001-.106.001-.107a6.12 6.12 0 0 0 4.861-4.86L69.657 0l.106.001a6.12 6.12 0 0 0 4.861 4.86l.001.107-.001.106a6.12 6.12 0 0 0-4.861 4.86 4 4 0 0 1-.212 0 6.12 6.12 0 0 0-4.861-4.86M37.338 10.062l-.001-.107.001-.106a6.12 6.12 0 0 0 4.86-4.86l.106-.001.107.001a6.12 6.12 0 0 0 4.86 4.86l.001.106-.001.107a6.12 6.12 0 0 0-4.86 4.86l-.107.001-.106-.001a6.12 6.12 0 0 0-4.86-4.86"/></svg>