<svg width="21" height="15" viewBox="0 0 21 15" fill="none" xmlns="http://www.w3.org/2000/svg">
<g clip-path="url(#clip0_366_12)">
<path fill-rule="evenodd" clip-rule="evenodd" d="M0 0H21V15H0V0Z" fill="white"/>
<path fill-rule="evenodd" clip-rule="evenodd" d="M8.17603 0H12.824V15H8.17603V0Z" fill="#DC171D"/>
<path fill-rule="evenodd" clip-rule="evenodd" d="M0 5.01001H21V9.99001H0V5.01001Z" fill="#012A87"/>
<path fill-rule="evenodd" clip-rule="evenodd" d="M9.68804 9.78005L9.32404 9.48005L8.96004 9.78005L9.10004 9.33005L8.76404 9.00005H9.18404L9.35204 8.55005L9.46404 9.00005H9.91204L9.57604 9.33005L9.68804 9.78005Z" fill="white"/>
<path fill-rule="evenodd" clip-rule="evenodd" d="M12.012 9.78005L11.648 9.48005L11.284 9.78005L11.424 9.33005L11.088 9.00005H11.508L11.676 8.55005L11.788 9.00005H12.236L11.9 9.33005L12.012 9.78005Z" fill="white"/>
<path fill-rule="evenodd" clip-rule="evenodd" d="M9.68804 6.44997L9.32404 6.14997L8.96004 6.44997L9.10004 5.99997L8.76404 5.66997H9.18404L9.35204 5.21997L9.46404 5.66997H9.91204L9.57604 5.99997L9.68804 6.44997Z" fill="white"/>
<path fill-rule="evenodd" clip-rule="evenodd" d="M11.928 6.44997L11.564 6.14997L11.2 6.44997L11.34 5.99997L11.004 5.66997H11.424L11.592 5.21997L11.704 5.66997H12.152L11.816 5.99997L11.928 6.44997Z" fill="white"/>
<path fill-rule="evenodd" clip-rule="evenodd" d="M7.75603 8.10012L7.39203 7.80012L7.02803 8.10012L7.16803 7.65012L6.83203 7.32012H7.25203L7.42003 6.87012L7.53203 7.32012H7.98003L7.64403 7.65012L7.75603 8.10012Z" fill="white"/>
<path fill-rule="evenodd" clip-rule="evenodd" d="M13.972 8.10012L13.608 7.80012L13.244 8.10012L13.384 7.65012L13.048 7.32012H13.468L13.636 6.87012L13.748 7.32012H14.196L13.86 7.65012L13.972 8.10012Z" fill="white"/>
</g>
<defs>
<clipPath id="clip0_366_12">
<rect width="21" height="15" fill="white"/>
</clipPath>
</defs>
</svg>
