<svg width="21" height="15" viewBox="0 0 21 15" fill="none" xmlns="http://www.w3.org/2000/svg">
<g clip-path="url(#clip0_367_425)">
<path d="M0 0H21V7.5H0V0Z" fill="black"/>
<path d="M0 7.5H21V15H0V7.5Z" fill="#007A3D"/>
<path d="M0 5H21V10H0V5Z" fill="white"/>
<path d="M0 0L7 7.5L0 15V0Z" fill="#C4111B"/>
<path d="M10.5 9.5C11.2732 9.5 11.9 8.60457 11.9 7.5C11.9 6.39543 11.2732 5.5 10.5 5.5C9.72678 5.5 9.09998 6.39543 9.09998 7.5C9.09998 8.60457 9.72678 9.5 10.5 9.5Z" fill="#C4111B"/>
<path d="M11.025 9.5C11.7982 9.5 12.425 8.60457 12.425 7.5C12.425 6.39543 11.7982 5.5 11.025 5.5C10.2518 5.5 9.625 6.39543 9.625 7.5C9.625 8.60457 10.2518 9.5 11.025 9.5Z" fill="white"/>
<path d="M10.1242 8.71112L10.7212 8.10152L11.3135 8.72037L11.0921 7.72087L11.6871 7.10737L10.9533 7.09937L10.7287 6.10132L10.4966 7.09582L9.76282 7.09247L10.3532 7.71517L10.1242 8.71112Z" fill="#C4111B"/>
</g>
<defs>
<clipPath id="clip0_367_425">
<rect width="21" height="15" fill="white"/>
</clipPath>
</defs>
</svg>
