<svg width="21" height="15" viewBox="0 0 21 15" fill="none" xmlns="http://www.w3.org/2000/svg">
<g clip-path="url(#clip0_367_411)">
<path fill-rule="evenodd" clip-rule="evenodd" d="M0 0H21V15H0V0Z" fill="white"/>
<path fill-rule="evenodd" clip-rule="evenodd" d="M0 0H21V5H0V0Z" fill="#ED2024"/>
<path fill-rule="evenodd" clip-rule="evenodd" d="M0 10H21V15H0V10Z" fill="#278E43"/>
<path fill-rule="evenodd" clip-rule="evenodd" d="M10.5 3.75L10.7623 5.6566L11.5375 3.91753L11.2636 5.82228L12.4827 4.40527L11.697 6.13887L13.2518 5.16985L12.0241 6.5783L13.7764 6.14333L12.2157 7.1015L14.0098 7.23925L12.2549 7.66198L13.9314 8.3602L12.1382 8.20993L13.5481 9.4066L11.8759 8.69668L12.894 10.2854L11.4914 9.07895L12.0272 10.9187L11.0188 9.32282L11.0246 11.25L10.5 9.4066L9.97545 11.25L9.98131 9.32282L8.97291 10.9187L9.50869 9.07895L8.10606 10.2855L9.12414 8.69668L7.45193 9.4066L8.86185 8.20993L7.06863 8.3602L8.74513 7.66195L6.99023 7.23925L8.78433 7.1015L7.22368 6.14333L8.97597 6.5783L7.74826 5.16985L9.30306 6.13885L8.51733 4.40527L9.73647 5.82228L9.46259 3.91753L10.2377 5.6566L10.5 3.75Z" fill="#FEBD11"/>
</g>
<defs>
<clipPath id="clip0_367_411">
<rect width="21" height="15" fill="white"/>
</clipPath>
</defs>
</svg>
