<svg width="21" height="15" viewBox="0 0 21 15" fill="none" xmlns="http://www.w3.org/2000/svg">
<g clip-path="url(#clip0_367_395)">
<path d="M0 0H21V15H0V0Z" fill="#D4001C"/>
<path d="M4.84216 7.54237L5.07901 7.74011C5.47374 8.07909 6.10532 8.75706 6.26322 9.91525L6.31585 10.226L6.52637 10.0282C6.89479 9.68926 8.00006 8.78531 9.60532 8.53107C9.36848 10.2542 8.52637 11.4407 8.21058 11.8362L8.02637 12.0621L8.31585 12.1186C9.39479 12.2881 10.0264 12.9661 10.3422 13.3898L10.5264 13.6441L10.7106 13.3898C11.0264 12.9661 11.658 12.2881 12.7369 12.1186L13.0264 12.0621L12.8422 11.8362C12.5264 11.4407 11.6843 10.2542 11.4474 8.53107C13.0527 8.78531 14.158 9.68926 14.5264 10.0282L14.7369 10.226L14.7895 9.91525C14.9474 8.75706 15.579 8.07909 15.9737 7.74011L16.2106 7.54237L15.9737 7.34463C15.579 7.00565 14.9474 6.32768 14.7895 5.16949L14.7369 4.85875L14.5264 5.05649C14.158 5.39548 13.0527 6.29943 11.4474 6.55367C11.6843 4.8305 12.5264 3.64406 12.8422 3.24858L13.0264 3.02259L12.7369 2.9661C11.658 2.79661 11.0264 2.11864 10.7106 1.69491L10.5264 1.44067L10.3422 1.69491C10.0264 2.11864 9.39479 2.79661 8.31585 2.9661L8.02637 3.02259L8.21058 3.24858C8.52637 3.64406 9.36848 4.8305 9.60532 6.55367C8.00006 6.29943 6.89479 5.39548 6.52637 5.05649L6.31585 4.85875L6.26322 5.16949C6.10532 6.32768 5.47374 7.00565 5.07901 7.34463L4.84216 7.54237ZM5.76322 7.54237C6.50006 6.80791 6.68427 6.01695 6.68427 6.01695C7.7369 6.9774 9.42111 7.20339 10.2369 7.23163C10.2106 6.35593 10.0001 4.54802 9.10532 3.41807C9.10532 3.41807 9.84216 3.22033 10.5264 2.42937C11.2106 3.22033 11.9474 3.41807 11.9474 3.41807C11.0527 4.54802 10.8422 6.35593 10.8158 7.23163C11.6316 7.20339 13.3158 6.9774 14.3685 6.01695C14.3685 6.01695 14.5527 6.80791 15.2895 7.54237C14.5527 8.27683 14.3685 9.06779 14.3685 9.06779C13.3158 8.10734 11.6316 7.88135 10.8158 7.8531C10.8422 8.72881 11.0527 10.5367 11.9474 11.6667C11.9474 11.6667 11.2106 11.8644 10.5264 12.6554C9.84216 11.8644 9.10532 11.6667 9.10532 11.6667C10.0001 10.5367 10.2106 8.72881 10.2369 7.8531C9.42111 7.88135 7.7369 8.10734 6.68427 9.06779C6.68427 9.06779 6.50006 8.27683 5.76322 7.54237Z" fill="#FDDD00"/>
<path d="M4.65264 8.05088C4.91425 8.05088 5.12632 7.82323 5.12632 7.54241C5.12632 7.26159 4.91425 7.03394 4.65264 7.03394C4.39103 7.03394 4.17896 7.26159 4.17896 7.54241C4.17896 7.82323 4.39103 8.05088 4.65264 8.05088Z" fill="#FDDD00"/>
<path d="M6.25261 5.15806C6.51422 5.15806 6.7263 4.93041 6.7263 4.64959C6.7263 4.36877 6.51422 4.14111 6.25261 4.14111C5.99101 4.14111 5.77893 4.36877 5.77893 4.64959C5.77893 4.93041 5.99101 5.15806 6.25261 5.15806Z" fill="#FDDD00"/>
<path d="M6.25261 10.9435C6.51422 10.9435 6.7263 10.7158 6.7263 10.435C6.7263 10.1542 6.51422 9.92651 6.25261 9.92651C5.99101 9.92651 5.77893 10.1542 5.77893 10.435C5.77893 10.7158 5.99101 10.9435 6.25261 10.9435Z" fill="#FDDD00"/>
<path d="M7.83159 3.46324C8.0932 3.46324 8.30528 3.23559 8.30528 2.95476C8.30528 2.67394 8.0932 2.44629 7.83159 2.44629C7.56999 2.44629 7.35791 2.67394 7.35791 2.95476C7.35791 3.23559 7.56999 3.46324 7.83159 3.46324Z" fill="#FDDD00"/>
<path d="M7.83159 12.6383C8.0932 12.6383 8.30528 12.4106 8.30528 12.1298C8.30528 11.849 8.0932 11.6213 7.83159 11.6213C7.56999 11.6213 7.35791 11.849 7.35791 12.1298C7.35791 12.4106 7.56999 12.6383 7.83159 12.6383Z" fill="#FDDD00"/>
<path d="M10.5263 1.74571C10.7879 1.74571 11 1.51806 11 1.23723C11 0.956412 10.7879 0.72876 10.5263 0.72876C10.2647 0.72876 10.0526 0.956412 10.0526 1.23723C10.0526 1.51806 10.2647 1.74571 10.5263 1.74571Z" fill="#FDDD00"/>
<path d="M10.5263 14.3558C10.7879 14.3558 11 14.1282 11 13.8473C11 13.5665 10.7879 13.3389 10.5263 13.3389C10.2647 13.3389 10.0526 13.5665 10.0526 13.8473C10.0526 14.1282 10.2647 14.3558 10.5263 14.3558Z" fill="#FDDD00"/>
<path d="M13.221 3.46324C13.4826 3.46324 13.6947 3.23559 13.6947 2.95476C13.6947 2.67394 13.4826 2.44629 13.221 2.44629C12.9594 2.44629 12.7473 2.67394 12.7473 2.95476C12.7473 3.23559 12.9594 3.46324 13.221 3.46324Z" fill="#FDDD00"/>
<path d="M13.221 12.6383C13.4826 12.6383 13.6947 12.4106 13.6947 12.1298C13.6947 11.849 13.4826 11.6213 13.221 11.6213C12.9594 11.6213 12.7473 11.849 12.7473 12.1298C12.7473 12.4106 12.9594 12.6383 13.221 12.6383Z" fill="#FDDD00"/>
<path d="M14.8 5.15806C15.0616 5.15806 15.2737 4.93041 15.2737 4.64959C15.2737 4.36877 15.0616 4.14111 14.8 4.14111C14.5384 4.14111 14.3263 4.36877 14.3263 4.64959C14.3263 4.93041 14.5384 5.15806 14.8 5.15806Z" fill="#FDDD00"/>
<path d="M14.8 10.9435C15.0616 10.9435 15.2737 10.7158 15.2737 10.435C15.2737 10.1542 15.0616 9.92651 14.8 9.92651C14.5384 9.92651 14.3263 10.1542 14.3263 10.435C14.3263 10.7158 14.5384 10.9435 14.8 10.9435Z" fill="#FDDD00"/>
<path d="M16.4 8.05088C16.6616 8.05088 16.8736 7.82323 16.8736 7.54241C16.8736 7.26159 16.6616 7.03394 16.4 7.03394C16.1383 7.03394 15.9263 7.26159 15.9263 7.54241C15.9263 7.82323 16.1383 8.05088 16.4 8.05088Z" fill="#FDDD00"/>
</g>
<defs>
<clipPath id="clip0_367_395">
<rect width="21" height="15" fill="white"/>
</clipPath>
</defs>
</svg>
